<svg width="58" height="58" viewBox="0 0 58 58" fill="none" xmlns="http://www.w3.org/2000/svg">
<g filter="url(#filter0_d_1_23)">
<rect x="4" y="3" width="50" height="50" rx="25" fill="#F2F2F2"/>
</g>
<path d="M25.6016 31.0312H20.8359L19.7656 34H18.2188L22.5625 22.625H23.875L28.2266 34H26.6875L25.6016 31.0312ZM21.2891 29.7969H25.1562L23.2188 24.4766L21.2891 29.7969ZM38.4141 28.6797C38.4141 29.7943 38.2266 30.7682 37.8516 31.6016C37.4766 32.4297 36.9453 33.0625 36.2578 33.5C35.5703 33.9375 34.7682 34.1562 33.8516 34.1562C32.9557 34.1562 32.1615 33.9375 31.4688 33.5C30.776 33.0573 30.237 32.4297 29.8516 31.6172C29.4714 30.7995 29.276 29.8542 29.2656 28.7812V27.9609C29.2656 26.8672 29.4557 25.901 29.8359 25.0625C30.2161 24.224 30.7526 23.5833 31.4453 23.1406C32.1432 22.6927 32.9401 22.4688 33.8359 22.4688C34.7474 22.4688 35.5495 22.6901 36.2422 23.1328C36.9401 23.5703 37.4766 24.2083 37.8516 25.0469C38.2266 25.8802 38.4141 26.8516 38.4141 27.9609V28.6797ZM36.9219 27.9453C36.9219 26.5964 36.651 25.5625 36.1094 24.8438C35.5677 24.1198 34.8099 23.7578 33.8359 23.7578C32.888 23.7578 32.1406 24.1198 31.5938 24.8438C31.0521 25.5625 30.7734 26.5625 30.7578 27.8438V28.6797C30.7578 29.987 31.0312 31.0156 31.5781 31.7656C32.1302 32.5104 32.888 32.8828 33.8516 32.8828C34.8203 32.8828 35.5703 32.5312 36.1016 31.8281C36.6328 31.1198 36.9062 30.1068 36.9219 28.7891V27.9453Z" fill="#003679"/>
<defs>
<filter id="filter0_d_1_23" x="0" y="0" width="58" height="58" filterUnits="userSpaceOnUse" color-interpolation-filters="sRGB">
<feFlood flood-opacity="0" result="BackgroundImageFix"/>
<feColorMatrix in="SourceAlpha" type="matrix" values="0 0 0 0 0 0 0 0 0 0 0 0 0 0 0 0 0 0 127 0" result="hardAlpha"/>
<feOffset dy="1"/>
<feGaussianBlur stdDeviation="2"/>
<feComposite in2="hardAlpha" operator="out"/>
<feColorMatrix type="matrix" values="0 0 0 0 0 0 0 0 0 0 0 0 0 0 0 0 0 0 0.25 0"/>
<feBlend mode="normal" in2="BackgroundImageFix" result="effect1_dropShadow_1_23"/>
<feBlend mode="normal" in="SourceGraphic" in2="effect1_dropShadow_1_23" result="shape"/>
</filter>
</defs>
</svg>
