<svg width="104" height="63" viewBox="0 0 104 63" fill="none" xmlns="http://www.w3.org/2000/svg">
<g clip-path="url(#clip0_1_146)">
<path d="M12.5667 63.0005L12.3882 62.9605C14.3782 54.1664 19.3792 46.1806 26.4699 40.474C31.8308 36.1664 38.2067 33.2854 44.9973 32.1024C51.7879 30.9193 58.7698 31.4732 65.2855 33.7117C71.8013 35.9502 77.6366 39.7998 82.2419 44.898C86.8472 49.9962 90.071 56.1752 91.6098 62.8532L91.4315 62.8935C87.2191 44.5138 71.0089 31.6772 52.0113 31.6772C33.2626 31.6772 16.6737 44.8505 12.5667 63.0005Z" fill="#3F3D56"/>
<path d="M38.1544 11.2449C40.8983 11.2449 43.1226 9.0346 43.1226 6.30801C43.1226 3.58141 40.8983 1.37106 38.1544 1.37106C35.4106 1.37106 33.1863 3.58141 33.1863 6.30801C33.1863 9.0346 35.4106 11.2449 38.1544 11.2449Z" fill="#FF6584"/>
<path d="M16.7497 61.8784C16.9046 62.4475 17.4353 62.8 17.4353 62.8C17.4353 62.8 17.7148 62.2297 17.5599 61.6606C17.4049 61.0914 16.8742 60.7389 16.8742 60.7389C16.8742 60.7389 16.5947 61.3092 16.7497 61.8784Z" fill="#3F3D56"/>
<path d="M16.9796 61.7569C17.4047 62.1682 17.4567 62.8004 17.4567 62.8004C17.4567 62.8004 16.8193 62.7659 16.3941 62.3546C15.9689 61.9433 15.917 61.311 15.917 61.311C15.917 61.311 16.5544 61.3456 16.9796 61.7569Z" fill="#003679"/>
<path d="M28.5497 61.8784C28.7047 62.4475 29.2354 62.8 29.2354 62.8C29.2354 62.8 29.5149 62.2297 29.3599 61.6606C29.205 61.0914 28.6743 60.7389 28.6743 60.7389C28.6743 60.7389 28.3948 61.3092 28.5497 61.8784Z" fill="#3F3D56"/>
<path d="M28.7789 61.7569C29.204 62.1682 29.256 62.8004 29.256 62.8004C29.256 62.8004 28.6186 62.7659 28.1934 62.3546C27.7682 61.9433 27.7163 61.311 27.7163 61.311C27.7163 61.311 28.3537 61.3456 28.7789 61.7569Z" fill="#003679"/>
<path d="M30.8884 16.5421L29.0203 15.0569L39.4819 5.77487H66.0096V13.9431L48.8226 25.4529L30.8884 16.5421Z" fill="#3F3D56"/>
<path d="M70.8485 10.9816V5.9603H67.3264V7.19001L66.0119 5.77487L57.4184 15.0569L54.0557 17.2846L48.8418 55.1388L56.705 62.9526H74.979V15.4282L70.8485 10.9816Z" fill="#CCCCCC"/>
<path d="M57.4166 15.0567H29.0208V62.9523H57.4166V15.0567Z" fill="#F2F2F2"/>
<path d="M45.2748 51.2573H40.0439V62.9527H45.2748V51.2573Z" fill="#CCCCCC"/>
<path d="M34.4373 54.5986V52.7422H32.1956V54.5986H34.2505H34.4373Z" fill="#3F3D56"/>
<path d="M34.2505 56.0835H32.1956V57.94H34.4373V56.0835H34.2505Z" fill="#3F3D56"/>
<path d="M38.1744 52.741H35.9326V54.5974H38.1744V52.741Z" fill="#3F3D56"/>
<path d="M38.1744 56.0835H35.9326V57.9399H38.1744V56.0835Z" fill="#3F3D56"/>
<path d="M49.7566 54.5986V52.7422H47.5149V54.5986H49.5698H49.7566Z" fill="#3F3D56"/>
<path d="M49.5698 56.0835H47.5149V57.94H49.7566V56.0835H49.5698Z" fill="#3F3D56"/>
<path d="M53.4959 52.741H51.2542V54.5974H53.4959V52.741Z" fill="#3F3D56"/>
<path d="M53.4959 56.0835H51.2542V57.9399H53.4959V56.0835Z" fill="#3F3D56"/>
<path d="M65.4518 17.4699V15.6136H63.21V17.4699H65.265H65.4518Z" fill="#3F3D56"/>
<path d="M65.265 18.9555H63.21V20.8118H65.4518V18.9555H65.265Z" fill="#3F3D56"/>
<path d="M69.1856 15.6136H66.9438V17.47H69.1856V15.6136Z" fill="#3F3D56"/>
<path d="M69.1856 18.9555H66.9438V20.8119H69.1856V18.9555Z" fill="#3F3D56"/>
<path d="M65.4518 27.8656V26.0091H63.21V27.8656H65.265H65.4518Z" fill="#3F3D56"/>
<path d="M65.265 29.3517H63.21V31.2081H65.4518V29.3517H65.265Z" fill="#3F3D56"/>
<path d="M69.1856 26.0092H66.9438V27.8656H69.1856V26.0092Z" fill="#3F3D56"/>
<path d="M69.1856 29.3516H66.9438V31.208H69.1856V29.3516Z" fill="#3F3D56"/>
<path d="M65.4518 38.2609V36.4045H63.21V38.2609H65.265H65.4518Z" fill="#3F3D56"/>
<path d="M65.265 39.7463H63.21V41.6028H65.4518V39.7463H65.265Z" fill="#3F3D56"/>
<path d="M69.1856 36.4053H66.9438V38.2617H69.1856V36.4053Z" fill="#3F3D56"/>
<path d="M69.1856 39.7473H66.9438V41.6037H69.1856V39.7473Z" fill="#3F3D56"/>
<path d="M65.4518 48.6574V46.8009H63.21V48.6574H65.265H65.4518Z" fill="#3F3D56"/>
<path d="M65.265 50.1429H63.21V51.9993H65.4518V50.1429H65.265Z" fill="#3F3D56"/>
<path d="M69.1856 46.8009H66.9438V48.6573H69.1856V46.8009Z" fill="#3F3D56"/>
<path d="M69.1856 50.1429H66.9438V51.9993H69.1856V50.1429Z" fill="#3F3D56"/>
<path d="M53.8697 17.4705H32.1992V21.9259H53.8697V17.4705Z" fill="#3F3D56"/>
<path d="M53.8697 26.3803H32.1992V30.8357H53.8697V26.3803Z" fill="#3F3D56"/>
<path d="M53.8697 35.291H32.1992V39.7464H53.8697V35.291Z" fill="#3F3D56"/>
<path d="M53.8697 44.2016H32.1992V48.657H53.8697V44.2016Z" fill="#3F3D56"/>
<path d="M104 62.765H0V62.9467H104V62.765Z" fill="#3F3D56"/>
<path d="M17.9548 41.7764H17.4175V62.8688H17.9548V41.7764Z" fill="#3F3D56"/>
<path d="M22.9119 44.4645C22.9461 51.84 17.7243 57.8431 17.7243 57.8431C17.7243 57.8431 12.447 51.8881 12.4128 44.5126C12.3786 37.1371 17.6004 31.1341 17.6004 31.1341C17.6004 31.1341 22.8777 37.0891 22.9119 44.4645Z" fill="#003679"/>
<path opacity="0.1" d="M22.9119 44.4645C22.9461 51.84 17.7243 57.8431 17.7243 57.8431C17.7243 57.8431 12.447 51.8881 12.4128 44.5126C12.3786 37.1371 17.6004 31.1341 17.6004 31.1341C17.6004 31.1341 22.8777 37.0891 22.9119 44.4645Z" fill="black"/>
<path d="M10.9695 41.7764H10.4321V62.8688H10.9695V41.7764Z" fill="#3F3D56"/>
<path d="M15.9265 44.4645C15.9607 51.84 10.7389 57.8431 10.7389 57.8431C10.7389 57.8431 5.46162 51.8881 5.42741 44.5126C5.39321 37.1371 10.615 31.1341 10.615 31.1341C10.615 31.1341 15.8923 37.0891 15.9265 44.4645Z" fill="#003679"/>
<path d="M86.4886 15.0268C82.2557 15.0462 78.8103 15.1083 78.8103 15.1083C78.8103 15.1083 82.9057 9.71764 86.4732 11.7149C90.0407 13.7121 94.1389 15.0381 94.1389 15.0381C94.1389 15.0381 90.7214 15.0074 86.4886 15.0268Z" fill="#F2F2F2"/>
<path d="M15.9676 25.3884C11.7347 25.4078 8.28931 25.47 8.28931 25.47C8.28931 25.47 12.3847 20.0793 15.9522 22.0765C19.5197 24.0737 23.6179 25.3998 23.6179 25.3998C23.6179 25.3998 20.2004 25.3691 15.9676 25.3884Z" fill="#F2F2F2"/>
<path d="M31.3326 3.75576C27.0997 3.77514 23.6543 3.83729 23.6543 3.83729C23.6543 3.83729 27.7497 -1.55341 31.3172 0.443804C34.8847 2.44102 38.9829 3.76709 38.9829 3.76709C38.9829 3.76709 35.5654 3.73637 31.3326 3.75576Z" fill="#F2F2F2"/>
<path d="M95.2102 41.7764H94.6729V62.8688H95.2102V41.7764Z" fill="#3F3D56"/>
<path d="M100.171 44.4645C100.205 51.84 94.983 57.8431 94.983 57.8431C94.983 57.8431 89.7058 51.8881 89.6716 44.5126C89.6374 37.1371 94.8592 31.1341 94.8592 31.1341C94.8592 31.1341 100.136 37.0891 100.171 44.4645Z" fill="#003679"/>
<path d="M75.4325 49.7761H80.8556V48.4753H83.8477V49.7761H89.4577V55.5368H83.8477V62.7841H80.8556V55.5368H75.4325L72.6274 52.3777L75.4325 49.7761Z" fill="#3F3D56"/>
</g>
<defs>
<clipPath id="clip0_1_146">
<rect width="104" height="63" fill="white"/>
</clipPath>
</defs>
</svg>
